<mxfile host="app.diagrams.net" modified="2024-03-04T05:33:17.218Z" agent="Mozilla/5.0 (Windows NT 10.0; Win64; x64) AppleWebKit/537.36 (KHTML, like Gecko) Chrome/122.0.0.0 Safari/537.36" version="24.0.1" etag="g9DQi6Kt8mhU99BmrMHy" type="github">
  <diagram name="Page-1" id="UizR5ww7FP5MVoucoiLo">
    <mxGraphModel>
      <root>
        <mxCell id="0" />
        <mxCell id="1" parent="0" />
      </root>
    </mxGraphModel>
  </diagram>
</mxfile>
